<?xml version="1.0" encoding="UTF-8" standalone="no"?>
<!-- Created with Inkscape (http://www.inkscape.org/) -->

<svg
   xmlns:dc="http://purl.org/dc/elements/1.1/"
   xmlns:cc="http://creativecommons.org/ns#"
   xmlns:rdf="http://www.w3.org/1999/02/22-rdf-syntax-ns#"
   xmlns:svg="http://www.w3.org/2000/svg"
   xmlns="http://www.w3.org/2000/svg"
   xmlns:sodipodi="http://sodipodi.sourceforge.net/DTD/sodipodi-0.dtd"
   xmlns:inkscape="http://www.inkscape.org/namespaces/inkscape"
   version="1.1"
   id="svg3699"
   xml:space="preserve"
   width="1122.6667"
   height="793.33331"
   viewBox="0 0 1122.6667 793.33331"
   sodipodi:docname="Data_processing_activites.svg"
   inkscape:version="0.92.2 (5c3e80d, 2017-08-06)"><metadata
     id="metadata3705"><rdf:RDF><cc:Work
         rdf:about=""><dc:format>image/svg+xml</dc:format><dc:type
           rdf:resource="http://purl.org/dc/dcmitype/StillImage" /><dc:title></dc:title></cc:Work></rdf:RDF></metadata><defs
     id="defs3703"><clipPath
       clipPathUnits="userSpaceOnUse"
       id="clipPath3711"><path
         d="M 0,0 H 595 V 842 H 0 Z"
         id="path3709"
         inkscape:connector-curvature="0" /></clipPath><clipPath
       clipPathUnits="userSpaceOnUse"
       id="clipPath3721"><path
         d="M 229,507.922 V 6507.92 H 4729 V 507.922 Z"
         id="path3719"
         inkscape:connector-curvature="0"
         style="clip-rule:evenodd" /></clipPath></defs><sodipodi:namedview
     pagecolor="#ffffff"
     bordercolor="#666666"
     borderopacity="1"
     objecttolerance="10"
     gridtolerance="10"
     guidetolerance="10"
     inkscape:pageopacity="0"
     inkscape:pageshadow="2"
     inkscape:window-width="1366"
     inkscape:window-height="716"
     id="namedview3701"
     showgrid="false"
     inkscape:zoom="0.68949582"
     inkscape:cx="561.33337"
     inkscape:cy="396.66666"
     inkscape:window-x="-8"
     inkscape:window-y="-8"
     inkscape:window-maximized="1"
     inkscape:current-layer="g3707" /><g
     id="g3707"
     inkscape:groupmode="layer"
     inkscape:label="Data_processing_activites"
     transform="matrix(0,1.3333333,1.3333333,0,0,0)"
     clip-path="url(#clipPath3711)"><g
       id="g3713"
       transform="matrix(0.12,0,0,0.12,-2.1755027,-15.228519)"><g
         id="g3715"><g
           id="g3717"
           clip-path="url(#clipPath3721)"><path
             d="m 229,507.922 h 4500 v 6000 H 229 Z"
             style="fill:#ffffff;fill-opacity:1;fill-rule:evenodd;stroke:none"
             id="path3723"
             inkscape:connector-curvature="0" /></g></g><path
         d="m 1423,2976.92 h 1659 v 12 H 1423 Z"
         style="fill:#4474b5;fill-opacity:1;fill-rule:evenodd;stroke:none"
         id="path3725"
         inkscape:connector-curvature="0" /><path
         d="m 1423,3321.92 h 1659 v 13 H 1423 Z"
         style="fill:#4474b5;fill-opacity:1;fill-rule:evenodd;stroke:none"
         id="path3727"
         inkscape:connector-curvature="0" /><path
         d="m 1423,3666.92 h 1659 v 13 H 1423 Z"
         style="fill:#4474b5;fill-opacity:1;fill-rule:evenodd;stroke:none"
         id="path3729"
         inkscape:connector-curvature="0" /><path
         d="m 1423,4012.92 h 1659 v 12 H 1423 Z"
         style="fill:#4474b5;fill-opacity:1;fill-rule:evenodd;stroke:none"
         id="path3731"
         inkscape:connector-curvature="0" /><path
         d="m 1423,4357.92 h 1659 v 12 H 1423 Z"
         style="fill:#4474b5;fill-opacity:1;fill-rule:evenodd;stroke:none"
         id="path3733"
         inkscape:connector-curvature="0" /><path
         d="m 1639,2788.92 h 13 v 1748 h -13 z"
         style="fill:#4474b5;fill-opacity:1;fill-rule:evenodd;stroke:none"
         id="path3735"
         inkscape:connector-curvature="0" /><path
         d="m 1947,2788.92 h 12 v 1748 h -12 z"
         style="fill:#4474b5;fill-opacity:1;fill-rule:evenodd;stroke:none"
         id="path3737"
         inkscape:connector-curvature="0" /><path
         d="m 2254,2788.92 h 13 v 1748 h -13 z"
         style="fill:#4474b5;fill-opacity:1;fill-rule:evenodd;stroke:none"
         id="path3739"
         inkscape:connector-curvature="0" /><path
         d="m 2562,2788.92 h 12 v 1748 h -12 z"
         style="fill:#4474b5;fill-opacity:1;fill-rule:evenodd;stroke:none"
         id="path3741"
         inkscape:connector-curvature="0" /><path
         d="m 2869,2788.92 h 13 v 1748 h -13 z"
         style="fill:#4474b5;fill-opacity:1;fill-rule:evenodd;stroke:none"
         id="path3743"
         inkscape:connector-curvature="0" /><g
         id="g3745"
         transform="scale(8.33333)"><text
           transform="matrix(0,1,1,0,162.48,341.751)"
           style="font-variant:normal;font-weight:bold;font-size:14.03999996px;font-family:Calibri;-inkscape-font-specification:'Calibri Bold';writing-mode:lr-tb;fill:#262626;fill-opacity:1;fill-rule:nonzero;stroke:none"
           id="text3749"><tspan
             x="0 8.8747902 16.311609 23.27095 40.793251 49.668041 57.104858 64.064201 81.706497 90.581291 98.018112 104.97745 122.49975 131.37454 138.81136 145.77071 163.41299 172.2878 179.72461 186.68394"
             y="0"
             sodipodi:role="line"
             id="tspan3747">DP#1DP#2DP#3DP#4DP#5</tspan></text>
<text
           transform="matrix(0,1,1,0,201.6,564.471)"
           style="font-style:italic;font-variant:normal;font-size:12px;font-family:Calibri;-inkscape-font-specification:'Calibri Italic';writing-mode:lr-tb;fill:#262626;fill-opacity:1;fill-rule:nonzero;stroke:none"
           id="text3761"><tspan
             x="0 6.2344689 12.352547 17.030624 21.111094 27.228891 36.708702 42.474236 46.556953 49.196064 55.072689 64.552498 70.670578 73.424675"
             y="0"
             sodipodi:role="line"
             id="tspan3751">Customer Email</tspan><tspan
             x="0 6.2344689 12.352547 17.030624 21.111094 27.228891 36.708702 42.474236 46.556953 49.196064 55.31414 58.068233 62.150951 66.231422 72.349503 75.108612 81.226685 87.344765 91.425232"
             y="37.080002"
             sodipodi:role="line"
             id="tspan3753">Customer birth date</tspan><tspan
             x="0 5.3982186 11.516296 14.270391 20.035921 22.795031 28.912828 32.995548 39.113625 44.879158 48.961876 51.720985 54.721546"
             y="74.160004"
             sodipodi:role="line"
             id="tspan3755">Sale order ID</tspan><tspan
             x="0 6.2447815 12.362578 15.116672 17.870766 22.910578 28.30739 30.946501 33.947063"
             y="111.24"
             sodipodi:role="line"
             id="tspan3757">Policy ID</tspan><tspan
             x="0 6.2447815 10.3275 16.093031 25.572844 28.326937 34.445015 43.924828 46.798077 53.768578 63.24839 69.366188 75.484268 81.602341"
             y="148.2"
             sodipodi:role="line"
             id="tspan3759">Premium Amount</tspan></text>
</g><path
         d="m 1647,2905.92 c -39,0 -71,32 -71,71 0,39 32,71 71,71 39,0 71,-32 71,-71 0,-39 -32,-71 -71,-71"
         style="fill:#ff0000;fill-opacity:1;fill-rule:evenodd;stroke:none"
         id="path3763"
         inkscape:connector-curvature="0" /><path
         d="m 1647,2902.92 h -8 l -7,1 -7,2 -7,2 -6,4 -7,3 -5,5 -6,4 -4,6 -5,5 -3,6 -3,7 -3,7 -2,7 -1,7 v 15 l 1,7 2,8 2,6 4,7 3,6 4,6 5,5 6,5 5,4 6,4 7,3 7,2 7,2 7,1 8,1 7,-1 7,-1 8,-2 6,-2 7,-3 6,-4 6,-4 5,-5 5,-5 4,-6 4,-6 3,-6 2,-7 2,-7 1,-8 1,-7 -1,-8 -1,-7 -2,-7 -2,-7 -3,-6 -4,-7 -4,-5 -5,-6 -5,-4 -6,-5 -6,-3 -6,-3 -7,-3 -7,-2 -8,-1 z m 6,6 7,1 7,2 6,2 6,3 5,3 6,4 4,5 5,5 4,5 3,5 3,6 2,6 2,7 1,7 v 13 l -1,7 -2,7 -2,6 -3,6 -3,5 -4,6 -4,5 -5,4 -5,4 -6,3 -6,3 -6,2 -6,2 -7,1 h -14 l -7,-1 -6,-2 -7,-2 -5,-3 -6,-3 -5,-4 -5,-4 -4,-5 -4,-5 -4,-6 -3,-6 -2,-6 -2,-6 -1,-7 v -14 l 1,-7 2,-6 2,-6 3,-6 3,-6 4,-5 5,-5 4,-4 6,-4 5,-4 6,-3 6,-2 7,-2 7,-1 h 7"
         style="fill:#027180;fill-opacity:1;fill-rule:nonzero;stroke:none"
         id="path3765"
         inkscape:connector-curvature="0" /><path
         d="m 1965,3256.92 c -39,0 -71,32 -71,71 0,39 32,71 71,71 39,0 71,-32 71,-71 0,-39 -32,-71 -71,-71"
         style="fill:#ff0000;fill-opacity:1;fill-rule:evenodd;stroke:none"
         id="path3767"
         inkscape:connector-curvature="0" /><path
         d="m 1965,3253.92 h -7 l -8,1 -7,2 -7,3 -6,3 -6,3 -6,5 -5,4 -5,6 -4,5 -4,6 -3,7 -3,7 -2,7 -1,7 v 15 l 1,8 2,7 3,6 3,7 4,6 4,6 5,5 5,5 5,4 7,4 6,3 7,2 7,2 7,1 8,1 7,-1 8,-1 7,-1 7,-3 6,-3 6,-4 6,-4 5,-5 5,-5 4,-6 4,-6 3,-6 3,-7 1,-7 2,-7 v -16 l -2,-7 -1,-7 -3,-7 -3,-6 -4,-6 -4,-6 -5,-5 -5,-5 -6,-4 -6,-4 -6,-3 -7,-3 -7,-2 -7,-1 z m 7,6 6,1 7,2 6,2 6,3 6,4 5,3 5,5 4,5 4,5 3,5 3,6 3,7 1,6 1,7 1,7 -1,7 -1,6 -1,7 -3,6 -2,6 -4,6 -4,5 -4,5 -5,4 -5,4 -6,3 -6,3 -6,2 -6,2 -7,1 -7,1 -7,-1 -7,-1 -6,-1 -6,-3 -6,-3 -6,-3 -5,-4 -5,-4 -4,-5 -4,-5 -4,-6 -2,-6 -3,-6 -1,-6 -1,-7 -1,-7 1,-7 1,-7 1,-6 2,-6 3,-6 4,-6 4,-5 4,-5 5,-4 5,-4 6,-4 5,-3 7,-2 6,-2 7,-1 h 7"
         style="fill:#027180;fill-opacity:1;fill-rule:nonzero;stroke:none"
         id="path3769"
         inkscape:connector-curvature="0" /><path
         d="m 1965,3602.92 c -39,0 -71,32 -71,71 0,39 32,71 71,71 39,0 71,-32 71,-71 0,-39 -32,-71 -71,-71"
         style="fill:#ff0000;fill-opacity:1;fill-rule:evenodd;stroke:none"
         id="path3771"
         inkscape:connector-curvature="0" /><path
         d="m 1965,3599.92 -7,1 -8,1 -7,1 -7,3 -6,3 -6,4 -6,4 -5,5 -5,5 -4,6 -4,6 -3,6 -3,7 -2,7 -1,7 v 16 l 1,7 2,7 3,7 3,6 4,6 4,6 5,5 5,5 5,4 7,4 6,3 7,3 7,2 7,1 h 15 l 8,-1 7,-2 7,-3 6,-3 6,-3 6,-5 5,-4 5,-6 4,-5 4,-6 3,-7 3,-7 1,-7 2,-7 v -15 l -2,-8 -1,-7 -3,-6 -3,-7 -4,-6 -4,-6 -5,-5 -5,-5 -6,-4 -6,-4 -6,-3 -7,-2 -7,-2 -7,-1 z m 7,7 6,1 7,1 6,3 6,3 6,3 5,4 5,4 4,5 4,5 3,6 3,6 3,6 1,6 1,7 1,7 -1,7 -1,7 -1,6 -3,6 -2,6 -4,6 -4,5 -4,5 -5,4 -5,4 -6,4 -6,3 -6,2 -6,2 -7,1 h -14 l -7,-1 -6,-2 -6,-2 -6,-3 -6,-3 -5,-4 -5,-5 -4,-5 -4,-5 -4,-5 -2,-6 -3,-7 -1,-6 -1,-7 -1,-7 1,-7 1,-6 1,-7 2,-6 3,-6 4,-6 4,-5 4,-5 5,-4 5,-4 6,-3 5,-3 7,-2 6,-2 7,-1 7,-1"
         style="fill:#027180;fill-opacity:1;fill-rule:nonzero;stroke:none"
         id="path3773"
         inkscape:connector-curvature="0" /><path
         d="m 1647,4297.92 c -39,0 -71,32 -71,71 0,39 32,71 71,71 39,0 71,-32 71,-71 0,-39 -32,-71 -71,-71"
         style="fill:#ff0000;fill-opacity:1;fill-rule:evenodd;stroke:none"
         id="path3775"
         inkscape:connector-curvature="0" /><path
         d="m 1647,4294.92 -8,1 -7,1 -7,1 -7,3 -6,3 -7,4 -5,4 -6,5 -4,5 -5,6 -3,6 -3,6 -3,7 -2,7 -1,7 v 16 l 1,7 2,7 2,7 4,6 3,6 4,6 5,5 6,5 5,4 6,4 7,3 7,3 7,2 7,1 h 15 l 7,-1 8,-2 6,-3 7,-3 6,-3 6,-5 5,-4 5,-6 4,-5 4,-6 3,-7 2,-7 2,-7 1,-7 1,-8 -1,-7 -1,-8 -2,-7 -2,-6 -3,-7 -4,-6 -4,-6 -5,-5 -5,-5 -6,-4 -6,-4 -6,-3 -7,-2 -7,-2 -8,-1 z m 6,7 7,1 7,1 6,3 6,2 5,4 6,4 4,4 5,5 4,5 3,6 3,6 2,6 2,6 1,7 v 14 l -1,7 -2,6 -2,6 -3,6 -3,6 -4,5 -4,5 -5,4 -5,4 -6,4 -6,3 -6,2 -6,1 -7,2 h -14 l -7,-1 -6,-2 -7,-2 -5,-3 -6,-4 -5,-3 -5,-5 -4,-5 -4,-5 -4,-5 -3,-6 -2,-7 -2,-6 -1,-7 v -14 l 1,-6 2,-7 2,-6 3,-6 3,-6 4,-5 5,-5 4,-4 6,-4 5,-3 6,-3 6,-3 7,-1 7,-1 7,-1"
         style="fill:#027180;fill-opacity:1;fill-rule:nonzero;stroke:none"
         id="path3777"
         inkscape:connector-curvature="0" /><path
         d="m 2577,3946.92 c -39,0 -70,32 -70,71 0,39 31,71 70,71 40,0 71,-32 71,-71 0,-39 -31,-71 -71,-71"
         style="fill:#ff0000;fill-opacity:1;fill-rule:evenodd;stroke:none"
         id="path3779"
         inkscape:connector-curvature="0" /><path
         d="m 2578,3943.92 h -8 l -7,1 -7,2 -7,3 -7,3 -6,3 -5,5 -6,4 -5,6 -4,5 -3,6 -4,7 -2,7 -2,7 -1,7 -1,8 1,7 1,8 2,7 2,7 3,6 4,6 4,6 5,5 5,5 6,4 6,4 7,3 6,2 7,2 8,1 7,1 8,-1 7,-1 7,-1 7,-3 7,-3 6,-4 5,-4 6,-5 4,-5 5,-6 3,-6 4,-6 2,-7 2,-7 1,-7 v -16 l -1,-7 -2,-7 -2,-7 -3,-6 -4,-6 -4,-6 -5,-5 -5,-5 -6,-4 -6,-4 -7,-3 -6,-3 -7,-2 -8,-1 z m 6,6 7,1 6,2 7,2 6,3 5,4 6,3 4,5 5,5 4,5 3,5 3,6 2,7 2,6 1,7 v 14 l -1,6 -2,7 -2,6 -3,6 -3,6 -4,5 -4,5 -5,4 -5,4 -6,3 -6,3 -6,3 -7,1 -6,1 -7,1 -7,-1 -7,-1 -6,-1 -7,-3 -6,-3 -5,-3 -5,-4 -5,-4 -5,-5 -4,-5 -3,-6 -3,-6 -2,-6 -2,-6 -1,-7 v -14 l 1,-7 2,-6 2,-6 3,-6 3,-6 4,-5 4,-5 5,-4 5,-4 6,-4 6,-3 6,-2 7,-2 6,-1 h 7"
         style="fill:#027180;fill-opacity:1;fill-rule:nonzero;stroke:none"
         id="path3781"
         inkscape:connector-curvature="0" /><path
         d="m 2873,4297.92 c -39,0 -71,32 -71,71 0,39 32,71 71,71 39,0 71,-32 71,-71 0,-39 -32,-71 -71,-71"
         style="fill:#ffc000;fill-opacity:1;fill-rule:evenodd;stroke:none"
         id="path3783"
         inkscape:connector-curvature="0" /><path
         d="m 2873,4294.92 -8,1 -7,1 -7,1 -7,3 -6,3 -6,4 -6,4 -5,5 -5,5 -4,6 -4,6 -3,6 -3,7 -2,7 -1,7 v 16 l 1,7 2,7 3,7 3,6 3,6 5,6 4,5 6,5 5,4 6,4 7,3 7,3 7,2 7,1 h 15 l 8,-1 7,-2 6,-3 7,-3 6,-3 6,-5 5,-4 5,-6 4,-5 4,-6 3,-7 2,-7 2,-7 1,-7 1,-8 -1,-7 -1,-8 -1,-7 -3,-6 -3,-7 -4,-6 -4,-6 -5,-5 -5,-5 -6,-4 -6,-4 -6,-3 -7,-2 -7,-2 -7,-1 z m 7,7 6,1 7,1 6,3 6,2 6,4 5,4 5,4 4,5 4,5 3,6 3,6 2,6 2,6 1,7 1,7 -1,7 -1,7 -1,6 -3,6 -3,6 -3,6 -4,5 -4,5 -5,4 -5,4 -6,4 -6,3 -6,2 -6,1 -7,2 h -14 l -7,-1 -6,-2 -6,-2 -6,-3 -6,-4 -5,-3 -5,-5 -4,-5 -4,-5 -4,-5 -3,-6 -2,-7 -2,-6 -1,-7 v -14 l 1,-6 2,-7 2,-6 3,-6 4,-6 3,-5 5,-5 5,-4 5,-4 5,-3 6,-3 7,-3 6,-1 7,-1 7,-1"
         style="fill:#027180;fill-opacity:1;fill-rule:nonzero;stroke:none"
         id="path3785"
         inkscape:connector-curvature="0" /><path
         d="m 2577,2901.92 c -39,0 -70,32 -70,71 0,39 31,71 70,71 40,0 71,-32 71,-71 0,-39 -31,-71 -71,-71"
         style="fill:#ffc000;fill-opacity:1;fill-rule:evenodd;stroke:none"
         id="path3787"
         inkscape:connector-curvature="0" /><path
         d="m 2578,2898.92 h -8 l -7,1 -7,2 -7,2 -7,4 -6,3 -5,4 -6,5 -5,6 -4,5 -3,6 -4,7 -2,7 -2,7 -1,7 -1,8 1,7 1,7 2,8 2,6 3,7 4,6 4,6 5,5 5,5 6,4 6,4 7,3 6,2 7,2 8,1 7,1 8,-1 7,-1 7,-2 7,-2 7,-3 6,-4 5,-4 6,-5 4,-5 5,-6 3,-6 4,-6 2,-7 2,-7 1,-8 v -15 l -1,-7 -2,-7 -2,-7 -3,-6 -4,-7 -4,-5 -5,-6 -5,-4 -6,-5 -6,-3 -7,-3 -6,-3 -7,-2 -8,-1 z m 6,6 7,1 6,2 7,2 6,3 5,3 6,4 4,5 5,5 4,5 3,5 3,6 2,6 2,7 1,7 v 13 l -1,7 -2,7 -2,6 -3,6 -3,5 -4,6 -4,4 -5,5 -5,4 -6,3 -6,3 -6,2 -7,2 -6,1 h -14 l -7,-1 -6,-2 -7,-2 -6,-3 -5,-3 -5,-4 -5,-4 -5,-5 -4,-5 -3,-6 -3,-6 -2,-6 -2,-6 -1,-7 v -14 l 1,-7 2,-6 2,-7 3,-5 3,-6 4,-5 4,-5 5,-5 5,-3 6,-4 6,-3 6,-2 7,-2 6,-1 h 7"
         style="fill:#027180;fill-opacity:1;fill-rule:nonzero;stroke:none"
         id="path3789"
         inkscape:connector-curvature="0" /><path
         d="m 2577,3256.92 c -39,0 -70,32 -70,71 0,39 31,71 70,71 40,0 71,-32 71,-71 0,-39 -31,-71 -71,-71"
         style="fill:#ffc000;fill-opacity:1;fill-rule:evenodd;stroke:none"
         id="path3791"
         inkscape:connector-curvature="0" /><path
         d="m 2578,3253.92 h -8 l -7,1 -7,2 -7,3 -7,3 -6,3 -5,5 -6,4 -5,6 -4,5 -3,6 -4,7 -2,7 -2,7 -1,7 -1,8 1,7 1,8 2,7 2,6 3,7 4,6 4,6 5,5 5,5 6,4 6,4 7,3 6,2 7,2 8,1 7,1 8,-1 7,-1 7,-1 7,-3 7,-3 6,-4 5,-4 6,-5 4,-5 5,-6 3,-6 4,-6 2,-7 2,-7 1,-7 v -16 l -1,-7 -2,-7 -2,-7 -3,-6 -4,-6 -4,-6 -5,-5 -5,-5 -6,-4 -6,-4 -7,-3 -6,-3 -7,-2 -8,-1 z m 6,6 7,1 6,2 7,2 6,3 5,4 6,3 4,5 5,5 4,5 3,5 3,6 2,7 2,6 1,7 v 14 l -1,6 -2,7 -2,6 -3,6 -3,6 -4,5 -4,5 -5,4 -5,4 -6,3 -6,3 -6,2 -7,2 -6,1 -7,1 -7,-1 -7,-1 -6,-1 -7,-3 -6,-3 -5,-3 -5,-4 -5,-4 -5,-5 -4,-5 -3,-6 -3,-6 -2,-6 -2,-6 -1,-7 v -14 l 1,-7 2,-6 2,-6 3,-6 3,-6 4,-5 4,-5 5,-4 5,-4 6,-4 6,-3 6,-2 7,-2 6,-1 h 7"
         style="fill:#027180;fill-opacity:1;fill-rule:nonzero;stroke:none"
         id="path3793"
         inkscape:connector-curvature="0" /><path
         d="m 2577,4297.92 c -39,0 -70,32 -70,71 0,39 31,71 70,71 40,0 71,-32 71,-71 0,-39 -31,-71 -71,-71"
         style="fill:#ffc000;fill-opacity:1;fill-rule:evenodd;stroke:none"
         id="path3795"
         inkscape:connector-curvature="0" /><path
         d="m 2578,4294.92 -8,1 -7,1 -7,1 -7,3 -7,3 -6,4 -5,4 -6,5 -5,5 -4,6 -3,6 -4,6 -2,7 -2,7 -1,7 -1,8 1,8 1,7 2,7 2,7 3,6 4,6 4,6 5,5 5,5 6,4 6,4 7,3 6,3 7,2 8,1 h 15 l 7,-1 7,-2 7,-3 7,-3 6,-3 5,-5 6,-4 4,-6 5,-5 3,-6 4,-7 2,-7 2,-7 1,-7 v -15 l -1,-8 -2,-7 -2,-6 -3,-7 -4,-6 -4,-6 -5,-5 -5,-5 -6,-4 -6,-4 -7,-3 -6,-2 -7,-2 -8,-1 z m 6,7 7,1 6,1 7,3 6,2 5,4 6,4 4,4 5,5 4,5 3,6 3,6 2,6 2,6 1,7 v 14 l -1,7 -2,6 -2,6 -3,6 -3,6 -4,5 -4,5 -5,4 -5,4 -6,4 -6,3 -6,2 -7,1 -6,2 h -14 l -7,-1 -6,-2 -7,-2 -6,-3 -5,-4 -5,-3 -5,-5 -5,-5 -4,-5 -3,-5 -3,-6 -2,-7 -2,-6 -1,-7 v -14 l 1,-6 2,-7 2,-6 3,-6 3,-6 4,-5 4,-5 5,-4 5,-4 6,-3 6,-3 6,-3 7,-1 6,-1 7,-1"
         style="fill:#027180;fill-opacity:1;fill-rule:nonzero;stroke:none"
         id="path3797"
         inkscape:connector-curvature="0" /><path
         d="m 2272,3946.92 c -39,0 -71,32 -71,71 0,39 32,71 71,71 39,0 71,-32 71,-71 0,-39 -32,-71 -71,-71"
         style="fill:#ff0000;fill-opacity:1;fill-rule:evenodd;stroke:none"
         id="path3799"
         inkscape:connector-curvature="0" /><path
         d="m 2272,3943.92 h -7 l -8,1 -7,2 -7,3 -6,3 -6,3 -6,5 -5,4 -5,6 -4,5 -4,6 -3,7 -3,7 -1,7 -2,7 v 15 l 1,8 2,7 3,7 3,6 4,6 4,6 5,5 5,5 5,4 7,4 6,3 7,2 7,2 7,1 8,1 7,-1 8,-1 7,-1 7,-3 6,-3 6,-4 6,-4 5,-5 5,-5 4,-6 4,-6 3,-6 3,-7 1,-7 2,-7 v -16 l -1,-7 -2,-7 -3,-7 -3,-6 -4,-6 -4,-6 -5,-5 -5,-5 -6,-4 -6,-4 -6,-3 -7,-3 -7,-2 -7,-1 z m 7,6 7,1 6,2 6,2 6,3 6,4 5,3 5,5 4,5 4,5 3,5 3,6 3,7 1,6 1,7 1,7 -1,7 -1,6 -1,7 -3,6 -2,6 -4,6 -4,5 -4,5 -5,4 -5,4 -6,3 -5,3 -7,3 -6,1 -7,1 -7,1 -7,-1 -6,-1 -7,-1 -6,-3 -6,-3 -6,-3 -5,-4 -5,-4 -4,-5 -4,-5 -4,-6 -2,-6 -3,-6 -1,-6 -1,-7 -1,-7 1,-7 1,-7 1,-6 2,-6 3,-6 4,-6 4,-5 4,-5 5,-4 5,-4 6,-4 5,-3 7,-2 6,-2 7,-1 h 7"
         style="fill:#027180;fill-opacity:1;fill-rule:nonzero;stroke:none"
         id="path3801"
         inkscape:connector-curvature="0" /><path
         d="m 2876,3602.92 c -39,0 -71,32 -71,71 0,39 32,71 71,71 39,0 71,-32 71,-71 0,-39 -32,-71 -71,-71"
         style="fill:#ff0000;fill-opacity:1;fill-rule:evenodd;stroke:none"
         id="path3803"
         inkscape:connector-curvature="0" /><path
         d="m 2876,3599.92 -7,1 -8,1 -7,1 -6,3 -7,3 -6,4 -6,4 -5,5 -5,5 -4,6 -4,6 -3,6 -2,7 -2,7 -1,7 -1,8 1,8 1,7 1,7 3,7 3,6 4,6 4,6 5,5 5,5 6,4 6,4 6,3 7,3 7,2 7,1 h 16 l 7,-1 7,-2 7,-3 6,-3 6,-3 6,-5 5,-4 5,-6 4,-5 4,-6 3,-7 3,-7 2,-7 1,-7 v -15 l -1,-8 -2,-7 -3,-6 -3,-7 -3,-6 -5,-6 -4,-5 -6,-5 -5,-4 -6,-4 -7,-3 -7,-2 -7,-2 -7,-1 z m 7,7 7,1 6,1 6,3 6,3 6,3 5,4 5,4 4,5 4,5 4,6 3,6 2,6 2,6 1,7 v 14 l -1,7 -2,6 -2,6 -3,6 -4,6 -3,5 -5,5 -5,4 -5,4 -5,4 -6,3 -7,2 -6,2 -7,1 h -14 l -6,-1 -7,-2 -6,-2 -6,-3 -6,-3 -5,-4 -5,-5 -4,-5 -4,-5 -3,-5 -3,-6 -2,-7 -2,-6 -1,-7 -1,-7 1,-7 1,-6 1,-7 3,-6 3,-6 3,-6 4,-5 4,-5 5,-4 5,-4 6,-3 6,-3 6,-2 6,-2 7,-1 7,-1"
         style="fill:#027180;fill-opacity:1;fill-rule:nonzero;stroke:none"
         id="path3805"
         inkscape:connector-curvature="0" /><path
         d="m 2272,3602.92 c -39,0 -71,32 -71,71 0,39 32,71 71,71 39,0 71,-32 71,-71 0,-39 -32,-71 -71,-71"
         style="fill:#92d050;fill-opacity:1;fill-rule:evenodd;stroke:none"
         id="path3807"
         inkscape:connector-curvature="0" /><path
         d="m 2272,3599.92 -7,1 -8,1 -7,1 -7,3 -6,3 -6,4 -6,4 -5,5 -5,5 -4,6 -4,6 -3,6 -3,7 -1,7 -2,7 v 16 l 1,7 2,7 3,7 3,6 4,6 4,6 5,5 5,5 5,4 7,4 6,3 7,3 7,2 7,1 h 15 l 8,-1 7,-2 7,-3 6,-3 6,-3 6,-5 5,-4 5,-6 4,-5 4,-6 3,-7 3,-7 1,-7 2,-7 v -15 l -1,-8 -2,-7 -3,-6 -3,-7 -4,-6 -4,-6 -5,-5 -5,-5 -6,-4 -6,-4 -6,-3 -7,-2 -7,-2 -7,-1 z m 7,7 7,1 6,1 6,3 6,3 6,3 5,4 5,4 4,5 4,5 3,6 3,6 3,6 1,6 1,7 1,7 -1,7 -1,7 -1,6 -3,6 -2,6 -4,6 -4,5 -4,5 -5,4 -5,4 -6,4 -5,3 -7,2 -6,2 -7,1 h -14 l -6,-1 -7,-2 -6,-2 -6,-3 -6,-3 -5,-4 -5,-5 -4,-5 -4,-5 -4,-5 -2,-6 -3,-7 -1,-6 -1,-7 -1,-7 1,-7 1,-6 1,-7 2,-6 3,-6 4,-6 4,-5 4,-5 5,-4 5,-4 6,-3 5,-3 7,-2 6,-2 7,-1 7,-1"
         style="fill:#027180;fill-opacity:1;fill-rule:nonzero;stroke:none"
         id="path3809"
         inkscape:connector-curvature="0" /><path
         d="m 3311,3097.92 c -31,0 -56,24 -56,55 0,30 25,55 56,55 30,0 55,-25 55,-55 0,-31 -25,-55 -55,-55"
         style="fill:#92d050;fill-opacity:1;fill-rule:evenodd;stroke:none"
         id="path3811"
         inkscape:connector-curvature="0" /><path
         d="m 3311,3094.92 h -6 l -6,1 -6,1 -5,2 -5,3 -5,2 -4,4 -5,4 -3,4 -4,4 -3,5 -2,5 -2,5 -2,6 v 6 l -1,6 1,6 v 6 l 2,5 2,6 2,5 3,5 3,4 4,4 4,4 5,3 5,3 5,3 5,2 6,1 6,1 h 11 l 6,-1 6,-1 5,-2 5,-3 5,-2 5,-4 4,-4 4,-4 3,-4 3,-5 2,-5 2,-6 2,-5 1,-6 v -12 l -1,-6 -2,-5 -1,-6 -3,-5 -3,-5 -3,-4 -4,-4 -4,-4 -5,-3 -4,-3 -5,-3 -6,-2 -5,-1 -6,-1 z m 5,6 5,1 5,1 5,2 4,2 5,3 4,3 3,3 4,4 3,4 2,4 3,5 1,4 2,5 1,5 v 11 l -1,5 -1,5 -2,5 -2,5 -3,4 -3,4 -3,4 -4,3 -4,3 -4,3 -5,2 -5,2 -5,1 -5,1 h -11 l -5,-1 -5,-1 -5,-2 -4,-2 -4,-3 -4,-3 -4,-3 -4,-4 -3,-4 -2,-4 -2,-5 -2,-4 -1,-5 -1,-6 -1,-5 1,-5 v -5 l 2,-5 2,-5 2,-5 2,-4 3,-4 4,-4 3,-3 4,-3 5,-3 4,-2 5,-2 5,-1 5,-1 h 5"
         style="fill:#027180;fill-opacity:1;fill-rule:nonzero;stroke:none"
         id="path3813"
         inkscape:connector-curvature="0" /><path
         d="m 3492,3097.92 c -31,0 -56,24 -56,55 0,30 25,55 56,55 30,0 55,-25 55,-55 0,-31 -25,-55 -55,-55"
         style="fill:#ffc000;fill-opacity:1;fill-rule:evenodd;stroke:none"
         id="path3815"
         inkscape:connector-curvature="0" /><path
         d="m 3492,3094.92 h -6 l -6,1 -5,1 -6,2 -5,3 -5,2 -4,4 -4,4 -4,4 -4,4 -3,5 -2,5 -2,5 -1,6 -1,6 -1,6 1,6 1,6 1,5 2,6 2,5 3,5 4,4 3,4 4,4 5,3 5,3 5,3 5,2 6,1 6,1 h 12 l 5,-1 6,-1 5,-2 6,-3 4,-2 5,-4 4,-4 4,-4 3,-4 3,-5 3,-5 2,-6 1,-5 1,-6 v -12 l -1,-6 -1,-5 -2,-6 -3,-5 -3,-5 -3,-4 -4,-4 -4,-4 -4,-3 -5,-3 -5,-3 -6,-2 -5,-1 -6,-1 z m 5,6 5,1 5,1 5,2 5,2 4,3 4,3 4,3 3,4 3,4 3,4 2,5 2,4 1,5 1,5 v 11 l -1,5 -1,5 -2,5 -2,5 -3,4 -3,4 -3,4 -4,3 -4,3 -4,3 -5,2 -5,2 -5,1 -5,1 h -10 l -6,-1 -5,-1 -4,-2 -5,-2 -4,-3 -4,-3 -4,-3 -3,-4 -3,-4 -3,-4 -2,-5 -2,-4 -1,-5 -1,-6 v -10 l 1,-5 1,-5 2,-5 2,-5 2,-4 3,-4 4,-4 3,-3 5,-3 4,-3 4,-2 5,-2 5,-1 5,-1 h 6"
         style="fill:#027180;fill-opacity:1;fill-rule:nonzero;stroke:none"
         id="path3817"
         inkscape:connector-curvature="0" /><path
         d="m 3673,3097.92 c -31,0 -55,24 -55,55 0,30 24,55 55,55 30,0 55,-25 55,-55 0,-31 -25,-55 -55,-55"
         style="fill:#ff0000;fill-opacity:1;fill-rule:evenodd;stroke:none"
         id="path3819"
         inkscape:connector-curvature="0" /><path
         d="m 3673,3094.92 h -6 l -6,1 -5,1 -6,2 -5,3 -5,2 -4,4 -4,4 -4,4 -3,4 -3,5 -3,5 -2,5 -1,6 -1,6 -1,6 1,6 1,6 1,5 2,6 2,5 3,5 4,4 3,4 5,4 4,3 5,3 5,3 5,2 6,1 6,1 h 12 l 6,-1 5,-1 6,-2 5,-3 4,-2 5,-4 4,-4 4,-4 3,-4 3,-5 3,-5 2,-6 1,-5 1,-6 v -12 l -1,-6 -1,-5 -2,-6 -3,-5 -3,-5 -3,-4 -4,-4 -4,-4 -4,-3 -5,-3 -5,-3 -6,-2 -5,-1 -6,-1 z m 5,6 5,1 5,1 5,2 5,2 4,3 4,3 4,3 3,4 3,4 3,4 2,5 2,4 1,5 1,5 v 11 l -1,5 -1,5 -2,5 -2,5 -3,4 -3,4 -3,4 -4,3 -4,3 -4,3 -5,2 -4,2 -5,1 -6,1 h -10 l -5,-1 -5,-1 -5,-2 -5,-2 -4,-3 -4,-3 -4,-3 -3,-4 -3,-4 -3,-4 -2,-5 -2,-4 -1,-5 -1,-6 v -10 l 1,-5 1,-5 2,-5 2,-5 3,-4 3,-4 3,-4 4,-3 4,-3 4,-3 5,-2 4,-2 5,-1 5,-1 h 6"
         style="fill:#027180;fill-opacity:1;fill-rule:nonzero;stroke:none"
         id="path3821"
         inkscape:connector-curvature="0" /><g
         id="g3823"
         transform="scale(8.33333)"><text
           transform="matrix(0,1,1,0,399,391.551)"
           style="font-style:oblique;font-variant:normal;font-size:12.47999954px;font-family:Helvetica;-inkscape-font-specification:Helvetica-Oblique;writing-mode:lr-tb;fill:#262626;fill-opacity:1;fill-rule:nonzero;stroke:none"
           id="text3831"><tspan
             x="0 3.4799869 10.43999 13.919977 20.87998 25.079969 35.279961 42.239964 45.719952 48.479961 55.439968 62.399971 66.23996 68.999969 75.239967 78.719955 85.679962 92.639961 96.119949 98.879959 105.83994 112.79991 119.75989"
             y="0"
             sodipodi:role="line"
             id="tspan3825">Information is optional</tspan><tspan
             x="0 3.4799869 10.43999 13.919977 20.87998 25.079969 35.279961 42.239964 45.719952 48.479961 55.439968 62.399971 66.23996 68.999969 75.239967 78.719955 81.479973 91.679962 98.639961 105.59994 109.79996 113.27995 120.23991 127.19989"
             y="22.08"
             sodipodi:role="line"
             id="tspan3827">Information is important</tspan><tspan
             x="0 3.4799869 10.43999 13.919977 20.87998 25.079969 35.279961 42.239964 45.719952 48.479961 55.439968 62.399971 66.23996 68.999969 75.239967 78.719955 88.919945 95.879951 102.83992 109.7999 116.75987 120.23986 127.19983 131.39986"
             y="44.279999"
             sodipodi:role="line"
             id="tspan3829">Information is mandatory</tspan></text>
</g><path
         d="m 1226,2704.92 v 1901 h -6 v -1901 z m -35,48 32,-55 32,55 c 1,1 0,3 -1,4 -2,1 -4,1 -5,-1 l -29,-50 h 6 l -30,50 c 0,2 -2,2 -4,1 -1,-1 -2,-3 -1,-4 z m 64,1804 -32,55 -32,-55 c -1,-1 0,-3 1,-4 2,-1 4,0 4,1 l 30,50 h -6 l 29,-50 c 1,-1 3,-2 5,-1 1,1 2,3 1,4"
         style="fill:#000000;fill-opacity:1;fill-rule:nonzero;stroke:none"
         id="path3833"
         inkscape:connector-curvature="0" /><path
         d="m 1367,2377.92 h 1535 v 7 H 1367 Z m 48,35 -54,-32 54,-31 c 2,-1 4,-1 5,1 0,1 0,3 -2,4 l -50,29 v -5 l 50,29 c 2,1 2,3 2,4 -1,2 -3,2 -5,1 z m 1438,-63 55,31 -55,32 c -1,1 -3,1 -4,-1 -1,-1 0,-3 1,-4 l 50,-29 v 5 l -50,-29 c -1,-1 -2,-3 -1,-4 1,-2 3,-2 4,-1"
         style="fill:#000000;fill-opacity:1;fill-rule:nonzero;stroke:none"
         id="path3835"
         inkscape:connector-curvature="0" /><g
         id="g3837"
         transform="scale(8.33333)"><text
           transform="matrix(0,1,1,0,247.92,223.671)"
           style="font-style:italic;font-variant:normal;font-weight:bold;font-size:15.96000004px;font-family:Calibri;-inkscape-font-specification:'Calibri, BoldItalic';writing-mode:lr-tb;fill:#262626;fill-opacity:1;fill-rule:nonzero;stroke:none"
           id="text3845"><tspan
             x="0 9.0072317 16.563803 20.162619 28.5653 36.967979 42.493092 50.895775"
             y="0"
             sodipodi:role="line"
             id="tspan3839">By data </tspan><tspan
             x="-3.24 4.5566335 8.5229301 16.319563 29.164177 36.960812 45.355324"
             y="17.280001"
             sodipodi:role="line"
             id="tspan3841">element</tspan><tspan
             x="127.08 136.08723 143.6438 147.24261 155.64529 164.04797 169.57309 177.97577 181.80679 190.21727 195.85646 204.25098 210.85703 218.65366 224.89297 231.13228 235.09857 243.49309 251.89577 255.97459 264.37726 270.98331 276.50842 280.47473 287.91092 291.87723 297.40234"
             y="-109.44"
             sodipodi:role="line"
             id="tspan3843">By data processing activity</tspan></text>
<text
           transform="matrix(0,1,1,0,199.08,299.511)"
           style="font-variant:normal;font-weight:bold;font-size:14.03999996px;font-family:Calibri;-inkscape-font-specification:'Calibri Bold';writing-mode:lr-tb;fill:#262626;fill-opacity:1;fill-rule:nonzero;stroke:none"
           id="text3857"><tspan
             x="0 8.8747902 15.717696 22.677038"
             y="0"
             sodipodi:role="line"
             id="tspan3847">DE#1</tspan><tspan
             x="0 8.8747902 15.717696 22.677038"
             y="37.200001"
             sodipodi:role="line"
             id="tspan3849">DE#2</tspan><tspan
             x="0 8.8747902 15.717696 22.677038"
             y="74.519997"
             sodipodi:role="line"
             id="tspan3851">DE#3</tspan><tspan
             x="0 8.8747902 15.717696 22.677038"
             y="111.72"
             sodipodi:role="line"
             id="tspan3853">DE#4</tspan><tspan
             x="0 8.8747902 15.717696 22.677038"
             y="148.92"
             sodipodi:role="line"
             id="tspan3855">DE#5</tspan></text>
</g><g
         id="g3859"
         transform="scale(8.33333)"><text
           transform="matrix(0,1,1,0,304.08,381.951)"
           style="font-variant:normal;font-weight:normal;font-size:18px;font-family:Helvetica;-inkscape-font-specification:Helvetica;writing-mode:lr-tb;fill:#242729;fill-opacity:1;fill-rule:nonzero;stroke:none"
           id="text3863"><tspan
             x="0 5.04 15.000011 24.000011 33.000011 42.000011 51.960022 61.920036"
             y="0"
             sodipodi:role="line"
             id="tspan3861">Inkscape</tspan></text>
</g></g></g></svg>